<svg id="Layer_1" data-name="Layer 1" xmlns="http://www.w3.org/2000/svg" xmlns:xlink="http://www.w3.org/1999/xlink" viewBox="0 0 1920 1080"><defs><style>.cls-1{fill:url(#linear-gradient);}.cls-2{opacity:0.2;}.cls-3{fill:none;stroke:#fff;stroke-miterlimit:10;stroke-width:3px;}</style><linearGradient id="linear-gradient" x1="960.93" y1="1177.39" x2="960.93" y2="-145.05" gradientUnits="userSpaceOnUse"><stop offset="0.17" stop-color="#3d42ad"/><stop offset="0.29" stop-color="#3d42ad"/><stop offset="1" stop-color="#2a1a4a"/></linearGradient></defs><rect class="cls-1" x="-124.32" y="-145.05" width="2170.51" height="1322.44"/><g class="cls-2"><line class="cls-3" x1="-63.98" y1="6.43" x2="2005.86" y2="6.43"/><line class="cls-3" x1="-63.98" y1="64.98" x2="2005.86" y2="64.98"/><line class="cls-3" x1="-63.98" y1="123.53" x2="2005.86" y2="123.53"/><line class="cls-3" x1="-63.98" y1="182.07" x2="2005.86" y2="182.07"/><line class="cls-3" x1="-63.98" y1="240.62" x2="2005.86" y2="240.62"/><line class="cls-3" x1="-63.98" y1="299.17" x2="2005.86" y2="299.17"/><line class="cls-3" x1="-63.98" y1="357.72" x2="2005.86" y2="357.72"/><line class="cls-3" x1="-63.98" y1="416.26" x2="2005.86" y2="416.26"/><line class="cls-3" x1="-63.98" y1="474.81" x2="2005.86" y2="474.81"/><line class="cls-3" x1="-63.98" y1="533.36" x2="2005.86" y2="533.36"/><line class="cls-3" x1="-63.98" y1="591.91" x2="2005.86" y2="591.91"/><line class="cls-3" x1="-63.98" y1="650.46" x2="2005.86" y2="650.46"/><line class="cls-3" x1="-63.98" y1="709" x2="2005.86" y2="709"/><line class="cls-3" x1="-63.98" y1="767.55" x2="2005.86" y2="767.55"/><line class="cls-3" x1="-63.98" y1="826.1" x2="2005.86" y2="826.1"/><line class="cls-3" x1="-63.98" y1="884.65" x2="2005.86" y2="884.65"/><line class="cls-3" x1="-63.98" y1="943.19" x2="2005.86" y2="943.19"/><line class="cls-3" x1="-63.98" y1="1001.74" x2="2005.86" y2="1001.74"/><line class="cls-3" x1="-63.98" y1="1060.29" x2="2005.86" y2="1060.29"/><line class="cls-3" x1="21.26" y1="1685.37" x2="21.26" y2="-384.46"/><line class="cls-3" x1="79.81" y1="1685.37" x2="79.81" y2="-384.46"/><line class="cls-3" x1="138.36" y1="1685.37" x2="138.36" y2="-384.46"/><line class="cls-3" x1="196.91" y1="1685.37" x2="196.91" y2="-384.46"/><line class="cls-3" x1="255.45" y1="1685.37" x2="255.45" y2="-384.46"/><line class="cls-3" x1="314" y1="1685.37" x2="314" y2="-384.46"/><line class="cls-3" x1="372.55" y1="1685.37" x2="372.55" y2="-384.46"/><line class="cls-3" x1="431.1" y1="1685.37" x2="431.1" y2="-384.46"/><line class="cls-3" x1="489.65" y1="1685.37" x2="489.65" y2="-384.46"/><line class="cls-3" x1="548.19" y1="1685.37" x2="548.19" y2="-384.46"/><line class="cls-3" x1="606.74" y1="1685.37" x2="606.74" y2="-384.46"/><line class="cls-3" x1="665.29" y1="1685.37" x2="665.29" y2="-384.46"/><line class="cls-3" x1="723.84" y1="1685.37" x2="723.84" y2="-384.46"/><line class="cls-3" x1="782.38" y1="1685.37" x2="782.38" y2="-384.46"/><line class="cls-3" x1="840.93" y1="1685.37" x2="840.93" y2="-384.46"/><line class="cls-3" x1="899.48" y1="1685.37" x2="899.48" y2="-384.46"/><line class="cls-3" x1="958.03" y1="1685.37" x2="958.03" y2="-384.46"/><line class="cls-3" x1="1016.58" y1="1685.37" x2="1016.58" y2="-384.46"/><line class="cls-3" x1="1075.12" y1="1685.37" x2="1075.12" y2="-384.46"/><line class="cls-3" x1="1133.67" y1="1685.37" x2="1133.67" y2="-384.46"/><line class="cls-3" x1="1192.22" y1="1685.37" x2="1192.22" y2="-384.46"/><line class="cls-3" x1="1250.77" y1="1685.37" x2="1250.77" y2="-384.46"/><line class="cls-3" x1="1309.31" y1="1685.37" x2="1309.31" y2="-384.46"/><line class="cls-3" x1="1367.86" y1="1685.37" x2="1367.86" y2="-384.46"/><line class="cls-3" x1="1426.41" y1="1685.37" x2="1426.41" y2="-384.46"/><line class="cls-3" x1="1484.96" y1="1685.37" x2="1484.96" y2="-384.46"/><line class="cls-3" x1="1543.51" y1="1685.37" x2="1543.51" y2="-384.46"/><line class="cls-3" x1="1602.05" y1="1685.37" x2="1602.05" y2="-384.46"/><line class="cls-3" x1="1660.6" y1="1685.37" x2="1660.6" y2="-384.46"/><line class="cls-3" x1="1719.15" y1="1685.37" x2="1719.15" y2="-384.46"/><line class="cls-3" x1="1777.7" y1="1685.37" x2="1777.7" y2="-384.46"/><line class="cls-3" x1="1836.25" y1="1685.37" x2="1836.25" y2="-384.46"/><line class="cls-3" x1="1894.79" y1="1685.37" x2="1894.79" y2="-384.46"/></g></svg>