<svg id="Layer_1" data-name="Layer 1" xmlns="http://www.w3.org/2000/svg" xmlns:xlink="http://www.w3.org/1999/xlink" viewBox="0 0 1920 1080"><defs><style>.cls-1{fill:url(#linear-gradient);}.cls-2{opacity:0.2;}.cls-3{fill:none;stroke:#fff;stroke-miterlimit:10;stroke-width:3px;}</style><linearGradient id="linear-gradient" x1="960.93" y1="1177.39" x2="960.93" y2="-145.05" gradientUnits="userSpaceOnUse"><stop offset="0.17" stop-color="#3d42ad"/><stop offset="0.29" stop-color="#3d42ad"/><stop offset="1" stop-color="#2a1a4a"/></linearGradient></defs><rect class="cls-1" x="-124.32" y="-145.05" width="2170.51" height="1322.44"/><g class="cls-2"><line class="cls-3" x1="27.63" y1="1551.09" x2="27.63" y2="-518.75"/><line class="cls-3" x1="87.63" y1="1551.09" x2="87.63" y2="-518.75"/><line class="cls-3" x1="147.63" y1="1551.09" x2="147.63" y2="-518.75"/><line class="cls-3" x1="207.63" y1="1551.09" x2="207.63" y2="-518.75"/><line class="cls-3" x1="267.63" y1="1551.09" x2="267.63" y2="-518.75"/><line class="cls-3" x1="327.63" y1="1551.09" x2="327.63" y2="-518.75"/><line class="cls-3" x1="387.63" y1="1551.09" x2="387.63" y2="-518.75"/><line class="cls-3" x1="447.63" y1="1551.09" x2="447.63" y2="-518.75"/><line class="cls-3" x1="507.63" y1="1551.09" x2="507.63" y2="-518.75"/><line class="cls-3" x1="567.63" y1="1551.09" x2="567.63" y2="-518.75"/><line class="cls-3" x1="627.63" y1="1551.09" x2="627.63" y2="-518.75"/><line class="cls-3" x1="687.63" y1="1551.09" x2="687.63" y2="-518.75"/><line class="cls-3" x1="747.63" y1="1551.09" x2="747.63" y2="-518.75"/><line class="cls-3" x1="807.63" y1="1551.09" x2="807.63" y2="-518.75"/><line class="cls-3" x1="867.63" y1="1551.09" x2="867.63" y2="-518.75"/><line class="cls-3" x1="927.63" y1="1551.09" x2="927.63" y2="-518.75"/><line class="cls-3" x1="987.63" y1="1551.09" x2="987.63" y2="-518.75"/><line class="cls-3" x1="1047.63" y1="1551.09" x2="1047.63" y2="-518.75"/><line class="cls-3" x1="1107.63" y1="1551.09" x2="1107.63" y2="-518.75"/><line class="cls-3" x1="1167.63" y1="1551.09" x2="1167.63" y2="-518.75"/><line class="cls-3" x1="1227.63" y1="1551.09" x2="1227.63" y2="-518.75"/><line class="cls-3" x1="1287.63" y1="1551.09" x2="1287.63" y2="-518.75"/><line class="cls-3" x1="1347.63" y1="1551.09" x2="1347.63" y2="-518.75"/><line class="cls-3" x1="1407.63" y1="1551.09" x2="1407.63" y2="-518.75"/><line class="cls-3" x1="1467.63" y1="1551.09" x2="1467.63" y2="-518.75"/><line class="cls-3" x1="1527.63" y1="1551.09" x2="1527.63" y2="-518.75"/><line class="cls-3" x1="1587.63" y1="1551.09" x2="1587.63" y2="-518.75"/><line class="cls-3" x1="1647.63" y1="1551.09" x2="1647.63" y2="-518.75"/><line class="cls-3" x1="1707.63" y1="1551.09" x2="1707.63" y2="-518.75"/><line class="cls-3" x1="1767.63" y1="1551.09" x2="1767.63" y2="-518.75"/><line class="cls-3" x1="1827.63" y1="1551.09" x2="1827.63" y2="-518.75"/><line class="cls-3" x1="1887.63" y1="1551.09" x2="1887.63" y2="-518.75"/></g><g class="cls-2"><path class="cls-3" d="M927.63,30h0Z"/><path class="cls-3" d="M927.63,90h0Z"/><path class="cls-3" d="M927.63,150h0Z"/><path class="cls-3" d="M927.63,210h0Z"/><path class="cls-3" d="M927.63,270.06h0Z"/><path class="cls-3" d="M927.63,330.07h0Z"/><path class="cls-3" d="M927.63,390.08h0Z"/><path class="cls-3" d="M927.63,450.09h0Z"/><path class="cls-3" d="M927.63,510.1h0Z"/><path class="cls-3" d="M927.63,570.11h0Z"/><path class="cls-3" d="M927.63,630.12h0Z"/><path class="cls-3" d="M927.63,690.13h0Z"/><path class="cls-3" d="M927.63,750.14h0Z"/><path class="cls-3" d="M927.63,810.16h0Z"/><path class="cls-3" d="M927.63,870.17h0Z"/><path class="cls-3" d="M927.63,930.18h0Z"/><path class="cls-3" d="M927.63,990.19h0Z"/><path class="cls-3" d="M1979.57,1050.2h0Z"/></g></svg>