<svg id="Layer_1" data-name="Layer 1" xmlns="http://www.w3.org/2000/svg" viewBox="0 0 200 200"><defs><style>.cls-1{fill:#ffbe00;}.cls-2{fill:#ffe600;}</style></defs><path class="cls-1" d="M111.19,35.58l17,29.18a7.86,7.86,0,0,0,5.1,3.71l33,7.14a12,12,0,0,1,6.41,19.74l-22.5,25.18a7.84,7.84,0,0,0-2,6l3.4,33.59a12,12,0,0,1-16.79,12.2L104,158.71a7.79,7.79,0,0,0-6.31,0l-30.9,13.61A12,12,0,0,1,50,160.12l3.4-33.59a7.76,7.76,0,0,0-1.95-6L28.93,95.35a12,12,0,0,1,6.41-19.74l33-7.14a7.88,7.88,0,0,0,5.11-3.71l17-29.18A12,12,0,0,1,111.19,35.58Z"/><path class="cls-2" d="M109.56,32.6l17,29.18a7.82,7.82,0,0,0,5.11,3.71l33,7.15a12,12,0,0,1,6.41,19.73l-22.49,25.18a7.78,7.78,0,0,0-2,6l3.4,33.59a12,12,0,0,1-16.79,12.2l-30.9-13.62a7.87,7.87,0,0,0-6.31,0l-30.9,13.62a12,12,0,0,1-16.79-12.2l3.4-33.59a7.86,7.86,0,0,0-2-6L27.29,92.37A12,12,0,0,1,33.7,72.64l33-7.15a7.8,7.8,0,0,0,5.1-3.71l17-29.18A12,12,0,0,1,109.56,32.6Z"/></svg>