<svg id="Layer_1" data-name="Layer 1" xmlns="http://www.w3.org/2000/svg" viewBox="0 0 200 200"><defs><style>.cls-1{fill:none;stroke:#a60000;stroke-miterlimit:10;stroke-width:6px;}.cls-2{fill:#a60000;}</style></defs><polygon class="cls-1" points="157.63 96.48 100 21.48 42.37 96.48 74.96 96.48 74.96 178.52 125.04 178.52 125.04 96.48 157.63 96.48"/><path class="cls-2" d="M96.11,84.22V75.45h0q5.86,0,6.94-1.29a4.76,4.76,0,0,0,0-6.06,4.31,4.31,0,0,0-6.14,0A4.71,4.71,0,0,0,95.86,71H84.75q0-7.48,7.14-11.09a23.11,23.11,0,0,1,7.78-1.39h.69a23.15,23.15,0,0,1,7.78,1.39q7.14,3.63,7.14,11.23a11.57,11.57,0,0,1-3.5,8.71,11.53,11.53,0,0,1,3.5,8.7q0,7.6-7.14,11.23a22.91,22.91,0,0,1-7.78,1.39h-.69a22.87,22.87,0,0,1-7.78-1.39q-7.14-3.63-7.14-11.23v-.15H95.86v.15a4.57,4.57,0,0,0,1.08,3,4.3,4.3,0,0,0,6.14,0,4.76,4.76,0,0,0,0-6.06q-1.08-1.29-6.94-1.29Z"/></svg>