<svg id="Layer_1" data-name="Layer 1" xmlns="http://www.w3.org/2000/svg" viewBox="0 0 200 200"><defs><style>.cls-1{fill:none;stroke:#ff2700;stroke-miterlimit:10;stroke-width:6px;}.cls-2{fill:#ff2700;}</style></defs><polygon class="cls-1" points="157.63 96.48 100 21.48 42.37 96.48 74.96 96.48 74.96 178.52 125.04 178.52 125.04 96.48 157.63 96.48"/><path class="cls-2" d="M95.39,68.7a21.37,21.37,0,0,1,4.28-.44h.69a22.92,22.92,0,0,1,7.78,1.4q7.14,3.63,7.14,12.68T108.14,95a22.92,22.92,0,0,1-7.78,1.4h-.69A22.88,22.88,0,0,1,91.89,95q-7.14-3.62-7.14-11.37H95.86a5.75,5.75,0,0,0,1.22,3.08,3.79,3.79,0,0,0,5.87,0A6.56,6.56,0,0,0,104.17,83V81.73A6.51,6.51,0,0,0,103,78a3.78,3.78,0,0,0-5.87,0,5.54,5.54,0,0,0-1.22,2.78H84.72V54.63h30.56v9.63H95.39Z"/></svg>