<svg id="Layer_1" data-name="Layer 1" xmlns="http://www.w3.org/2000/svg" viewBox="0 0 200 200"><defs><style>.cls-1{fill:none;stroke:#460000;stroke-miterlimit:10;stroke-width:6px;}.cls-2{fill:#460000;}</style></defs><polygon class="cls-1" points="157.63 96.48 100 21.48 42.37 96.48 74.96 96.48 74.96 178.52 125.04 178.52 125.04 96.48 157.63 96.48"/><path class="cls-2" d="M104.17,72A6.56,6.56,0,0,0,103,68.2a3.79,3.79,0,0,0-5.87,0,6.71,6.71,0,0,0-1,2.38L84.86,69.39q.83-6.33,7-9.49a23.11,23.11,0,0,1,7.78-1.39h.69a23.15,23.15,0,0,1,7.78,1.39q7.14,3.63,7.14,11.49,0,8.28-12.5,18.86h12.5V100H84.72V93.15Q104.16,78.51,104.17,72Z"/></svg>