<svg id="Layer_1" data-name="Layer 1" xmlns="http://www.w3.org/2000/svg" xmlns:xlink="http://www.w3.org/1999/xlink" viewBox="0 0 200 200"><defs><style>.cls-1{fill:none;stroke-miterlimit:10;stroke-width:6px;stroke:url(#linear-gradient);}.cls-2{fill:url(#linear-gradient-2);}</style><linearGradient id="linear-gradient" x1="61.85" y1="175.68" x2="140.29" y2="39.82" gradientUnits="userSpaceOnUse"><stop offset="0.02" stop-color="#d000ff"/><stop offset="0.28" stop-color="#004eff"/><stop offset="0.54" stop-color="#00d200"/><stop offset="0.76" stop-color="#f6d200"/><stop offset="1" stop-color="#ed1c24"/></linearGradient><linearGradient id="linear-gradient-2" x1="88.97" y1="93.77" x2="111.53" y2="55.97" xlink:href="#linear-gradient"/></defs><polygon class="cls-1" points="157.63 96.48 100 21.48 42.37 96.48 74.96 96.48 74.96 178.52 125.04 178.52 125.04 96.48 157.63 96.48"/><path class="cls-2" d="M95.86,68.58a23.14,23.14,0,0,1,3.81-.32h.69a22.92,22.92,0,0,1,7.78,1.4q7.14,3.61,7.14,12.67T108.14,95a22.92,22.92,0,0,1-7.78,1.4h-.69A22.88,22.88,0,0,1,91.89,95q-7.1-3.58-7.14-12.53V69.54q0-10.77,7.14-14.39a22.87,22.87,0,0,1,7.78-1.39h.69a22.91,22.91,0,0,1,7.78,1.39q6.19,3.16,7,9.49L104,65.83a6.81,6.81,0,0,0-1-2.38,3.78,3.78,0,0,0-5.87,0,6.53,6.53,0,0,0-1.22,3.77ZM97.08,78a6.57,6.57,0,0,0-1.22,3.78v1.21a6.57,6.57,0,0,0,1.22,3.78,3.79,3.79,0,0,0,5.87,0,6.57,6.57,0,0,0,1.22-3.78V81.73A6.57,6.57,0,0,0,103,78a3.79,3.79,0,0,0-5.87,0Z"/></svg>