<?xml version="1.0" encoding="utf-8"?>
<!-- Generator: Adobe Illustrator 25.4.1, SVG Export Plug-In . SVG Version: 6.00 Build 0)  -->
<svg version="1.1" id="Layer_1" xmlns="http://www.w3.org/2000/svg" xmlns:xlink="http://www.w3.org/1999/xlink" x="0px" y="0px"
	 viewBox="0 0 200 200" style="enable-background:new 0 0 200 200;" xml:space="preserve">
<style type="text/css">
	.st0{fill:#FFCF00;}
	.st1{fill:#FFA800;}
	.st2{fill:#FFFFFF;}
</style>
<circle class="st0" cx="99.4" cy="100" r="68.8"/>
<circle class="st1" cx="99.4" cy="100" r="57.7"/>
<path class="st2" d="M105.2,143.7H93.5c-0.6,0-1.1-0.5-1.1-1.1v-85c0-0.6,0.5-1.1,1.1-1.1h11.7c0.6,0,1.1,0.5,1.1,1.1v85
	C106.3,143.2,105.8,143.7,105.2,143.7z"/>
<g>
	<path class="st2" d="M62.9,100c0-21.9,16.6-36.9,37.4-36.9c15.7,0,24.8,8,29.9,16.6c0.3,0.5,0.1,1.1-0.4,1.3l-11.3,5.6
		c-0.4,0.2-1,0-1.2-0.4c-3.2-5.4-9.3-9.6-16.9-9.6c-12.4,0-21.8,9.9-21.8,23.4s9.4,23.4,21.8,23.4c7.6,0,13.8-4.1,16.9-9.6
		c0.2-0.4,0.8-0.6,1.2-0.4l11.3,5.5c0.5,0.2,0.7,0.9,0.4,1.3c-5.2,8.6-14.1,16.7-29.9,16.7C79.5,136.9,62.9,121.9,62.9,100z"/>
</g>
</svg>
