<svg id="Layer_1" data-name="Layer 1" xmlns="http://www.w3.org/2000/svg" viewBox="0 0 200 200"><defs><style>.cls-1{fill:#ffc400;}.cls-1,.cls-2{stroke:#000;stroke-miterlimit:10;stroke-width:2px;}.cls-2{fill:#fff;}</style></defs><path class="cls-1" d="M166.36,63.84A22.41,22.41,0,0,1,144,86.25H58.56A22.41,22.41,0,0,1,36.15,63.84V62.51A1.5,1.5,0,0,1,37.65,61H164.87a1.49,1.49,0,0,1,1.49,1.49ZM171.1,52H31.42a4.27,4.27,0,0,0-4.27,4.26v7.56A31.41,31.41,0,0,0,58.56,95.25H144a31.41,31.41,0,0,0,31.41-31.41V56.28A4.26,4.26,0,0,0,171.1,52Z"/><rect class="cls-1" x="89.47" y="101.16" width="23.3" height="47.74"/><path class="cls-1" d="M60.4,25.56h81.43a5.34,5.34,0,0,1,5.34,5.34V71.62a46.06,46.06,0,0,1-46.06,46.06h0A46.06,46.06,0,0,1,55.06,71.62V30.9a5.34,5.34,0,0,1,5.34-5.34Z"/><rect class="cls-1" x="61.4" y="126.83" width="79.44" height="39.2" rx="5.12"/><rect class="cls-1" x="55.06" y="146.43" width="92.11" height="45.45" rx="5.93"/><rect class="cls-1" x="52.18" y="21.48" width="97.88" height="24.62" rx="4.79"/><polygon class="cls-2" points="101.26 51.35 108.92 63.05 122.43 66.73 113.66 77.64 114.34 91.62 101.26 86.65 88.17 91.62 88.85 77.64 80.09 66.73 93.59 63.05 101.26 51.35"/></svg>